<svg data-v-423bf9ae="" xmlns="http://www.w3.org/2000/svg" viewBox="0 0 261.3394873593 60" class="font"><!----><!----><!----><g data-v-423bf9ae="" id="12637c33-e34b-4a87-b532-52e0b379b07e" fill="black" transform="matrix(4.618937725726786,0,0,4.618937725726786,-4.572745434824782,-23.46420234062078)"><path d="M1.68 15.22C2.10 15.22 2.55 14.83 2.51 14.25L2.17 7.71C3.01 9.25 4.62 11.76 7.48 15.12C7.76 15.27 8.43 15.19 8.60 14.99C8.53 14.48 8.51 13.96 8.51 13.17L8.53 6.83C8.53 6.43 8.53 5.77 8.67 5.29C8.46 5.17 8.19 5.12 7.97 5.14C7.43 5.22 7.18 5.71 7.24 6.41L7.64 12.85C6.83 11.21 3.93 7.52 2.31 5.21C2.16 5.07 1.33 5.10 1.13 5.32C1.20 5.84 1.23 6.41 1.23 7.20L1.23 13.13C1.23 13.66 1.19 14.43 0.99 14.99C1.18 15.12 1.43 15.22 1.68 15.22ZM13.55 15.22C15.68 15.22 16.93 13.80 16.93 11.44C16.93 9.04 15.68 7.64 13.55 7.64C11.42 7.64 10.19 9.04 10.19 11.44C10.19 13.80 11.42 15.22 13.55 15.22ZM13.55 14.62C12.47 14.62 11.94 13.52 11.94 11.44C11.94 9.32 12.47 8.23 13.55 8.23C14.63 8.23 15.16 9.32 15.16 11.44C15.16 13.52 14.63 14.62 13.55 14.62ZM20.47 7.84L20.29 7.84C20.31 7.27 20.38 6.80 20.51 6.33C20.37 6.20 20.06 5.96 19.59 5.96C19.04 5.96 18.63 6.29 18.63 6.82L18.63 7.84L18.05 7.84C17.81 7.84 17.61 7.97 17.60 8.25L17.58 8.65C17.77 8.62 18.24 8.60 18.42 8.60L18.63 8.60L18.63 13.33C18.63 14.46 19.22 15.16 20.27 15.16C21.13 15.16 21.69 14.80 21.69 14.27C21.69 14.11 21.63 13.90 21.50 13.72C21.42 13.87 21.13 13.94 20.92 13.94C20.48 13.94 20.27 13.68 20.27 13.19L20.27 9.06L20.27 8.60L21.56 8.60C21.78 8.60 21.97 8.46 21.98 8.19L21.99 7.78C21.85 7.81 20.61 7.84 20.47 7.84ZM28.50 13.06C28.20 13.72 27.48 14.17 26.46 14.17C25.27 14.17 24.46 13.57 24.33 11.79C24.82 11.84 25.28 11.86 25.75 11.86C27.59 11.86 28.81 11.12 28.81 9.73C28.81 8.34 27.61 7.64 26.04 7.64C23.77 7.64 22.55 9.09 22.55 11.42C22.55 13.86 23.90 15.22 26.01 15.22C27.29 15.22 28.27 14.73 28.62 13.83C28.83 13.34 28.69 13.15 28.50 13.06ZM25.98 8.23C26.52 8.23 27.05 8.48 27.05 9.46C27.05 11.03 25.86 11.24 24.86 11.23C24.67 11.23 24.47 11.21 24.30 11.20C24.30 9.32 24.93 8.23 25.98 8.23ZM33.15 15.22C35.60 15.22 36.68 13.96 36.68 12.53C36.68 10.88 35.34 10.04 33.96 9.30C32.37 8.41 31.77 7.90 31.77 6.94C31.77 5.98 32.58 5.70 33.25 5.70C34.24 5.70 34.82 6.16 34.94 6.79C35.01 7.01 35.06 7.28 35.03 7.53C35.18 7.56 35.38 7.57 35.52 7.56C36.16 7.53 36.37 7.17 36.37 6.75C36.37 5.66 35.15 5.08 33.45 5.08C31.71 5.08 30.23 5.77 30.23 7.52C30.23 9.10 31.32 9.84 33.04 10.82C34.37 11.56 35.07 12.07 35.07 13.08C35.07 14.11 34.33 14.59 33.36 14.59C32.05 14.59 31.37 13.82 31.26 12.96C31.23 12.73 31.23 12.47 31.28 12.26C30.21 12.11 29.88 12.61 29.88 13.22C29.88 14.34 30.90 15.22 33.15 15.22ZM42.22 7.64C41.06 7.64 40.26 8.30 39.84 9.52C39.76 8.39 39.33 7.70 38.47 7.70C37.86 7.70 37.42 8.05 37.42 8.55C37.42 8.71 37.48 8.92 37.59 9.10C37.69 8.96 37.86 8.93 37.97 8.93C38.22 8.93 38.33 9.14 38.33 9.65L38.32 17.23C38.32 17.77 38.74 18.07 39.27 18.07C39.73 18.07 40.07 17.85 40.21 17.72C39.98 16.94 39.94 15.88 39.94 15.26L39.94 14.29C40.22 14.90 40.84 15.22 41.71 15.22C43.55 15.22 44.70 13.78 44.70 11.14C44.70 9.37 44.14 7.64 42.22 7.64ZM41.30 14.35C40.28 14.35 39.97 13.51 39.97 12.11C39.97 10.35 40.54 8.54 41.75 8.54C42.76 8.54 42.97 9.67 42.97 11.13C42.97 13.20 42.45 14.35 41.30 14.35ZM49.13 15.22C51.25 15.22 52.50 13.80 52.50 11.44C52.50 9.04 51.25 7.64 49.13 7.64C47.00 7.64 45.77 9.04 45.77 11.44C45.77 13.80 47.00 15.22 49.13 15.22ZM49.13 14.62C48.05 14.62 47.52 13.52 47.52 11.44C47.52 9.32 48.05 8.23 49.13 8.23C50.20 8.23 50.74 9.32 50.74 11.44C50.74 13.52 50.20 14.62 49.13 14.62ZM56.04 7.84L55.86 7.84C55.89 7.27 55.96 6.80 56.08 6.33C55.94 6.20 55.64 5.96 55.16 5.96C54.61 5.96 54.21 6.29 54.21 6.82L54.21 7.84L53.62 7.84C53.38 7.84 53.19 7.97 53.17 8.25L53.16 8.65C53.34 8.62 53.82 8.60 54.00 8.60L54.21 8.60L54.21 13.33C54.21 14.46 54.80 15.16 55.85 15.16C56.70 15.16 57.26 14.80 57.26 14.27C57.26 14.11 57.20 13.90 57.08 13.72C56.99 13.87 56.70 13.94 56.49 13.94C56.06 13.94 55.85 13.68 55.85 13.19L55.85 9.06L55.85 8.60L57.13 8.60C57.36 8.60 57.54 8.46 57.55 8.19L57.57 7.78C57.43 7.81 56.18 7.84 56.04 7.84Z"></path></g><!----><!----></svg>